<svg width="43" height="43" viewBox="0 0 43 43" fill="none" xmlns="http://www.w3.org/2000/svg">
<path d="M25.0834 23.2916C26.5765 23.2916 27.8456 22.7691 28.8907 21.7239C29.9358 20.6788 30.4584 19.4097 30.4584 17.9166C30.4584 16.4236 29.9358 15.1545 28.8907 14.1093C27.8456 13.0642 26.5765 12.5416 25.0834 12.5416C23.5904 12.5416 22.3213 13.0642 21.2761 14.1093C20.231 15.1545 19.7084 16.4236 19.7084 17.9166C19.7084 19.4097 20.231 20.6788 21.2761 21.7239C22.3213 22.7691 23.5904 23.2916 25.0834 23.2916ZM8.95841 28.6666V7.16663H41.2084V28.6666H8.95841ZM1.79175 35.8333V12.5416H5.37508V32.25H35.8334V35.8333H1.79175ZM12.5417 14.3333C13.5272 14.3333 14.371 13.9821 15.0734 13.2798C15.7757 12.5775 16.1263 11.7342 16.1251 10.75H12.5417V14.3333ZM37.6251 14.3333V10.75H34.0417C34.0417 11.7354 34.3929 12.5793 35.0952 13.2816C35.7976 13.9839 36.6409 14.3345 37.6251 14.3333ZM34.0417 25.0833H37.6251V21.5C36.6397 21.5 35.7958 21.8511 35.0935 22.5535C34.3911 23.2558 34.0406 24.0991 34.0417 25.0833ZM12.5417 25.0833H16.1251C16.1251 24.0979 15.7739 23.254 15.0716 22.5517C14.3692 21.8493 13.526 21.4988 12.5417 21.5V25.0833Z" fill="black"/>
</svg>
