<svg width="43" height="43" viewBox="0 0 43 43" fill="none" xmlns="http://www.w3.org/2000/svg">
<g clip-path="url(#clip0_2_733)">
<path d="M18.8125 10.75V13.4375H10.75V10.75H18.8125ZM10.75 18.8125V16.125H18.8125V18.8125H10.75ZM10.75 24.1875V21.5H16.125V24.1875H10.75ZM8.0625 10.75V13.4375H5.375V10.75H8.0625ZM8.0625 16.125V18.8125H5.375V16.125H8.0625ZM5.375 24.1875V21.5H8.0625V24.1875H5.375ZM2.6875 2.6875V40.3125H16.125V43H0V0H23.4106L34.9375 11.5269V16.125H32.25V13.4375H21.5V2.6875H2.6875ZM24.1875 4.59814V10.75H30.3394L24.1875 4.59814ZM37.625 21.5H43V43H18.8125V21.5H24.1875V18.8125H26.875V21.5H34.9375V18.8125H37.625V21.5ZM40.3125 40.3125V29.5625H21.5V40.3125H40.3125ZM40.3125 26.875V24.1875H21.5V26.875H40.3125Z" fill="black"/>
</g>
<defs>
<clipPath id="clip0_2_733">
<rect width="43" height="43" fill="white"/>
</clipPath>
</defs>
</svg>
