<svg width="43" height="43" viewBox="0 0 43 43" fill="none" xmlns="http://www.w3.org/2000/svg">
<path d="M5.37508 24.1875L4.03133 21.5H13.4376L12.3626 18.8125H3.58341L2.23966 16.125H16.2147L15.1397 13.4375H1.98883L0.447998 10.75H7.16675C7.16675 9.79966 7.54428 8.88823 8.21628 8.21622C8.88829 7.54422 9.79972 7.16669 10.7501 7.16669H32.2501V14.3334H37.6251L43.0001 21.5V30.4584H39.4167C39.4167 31.8839 38.8505 33.251 37.8424 34.2591C36.8344 35.2671 35.4673 35.8334 34.0417 35.8334C32.6162 35.8334 31.2491 35.2671 30.241 34.2591C29.233 33.251 28.6667 31.8839 28.6667 30.4584H21.5001C21.5001 31.8839 20.9338 33.251 19.9258 34.2591C18.9178 35.2671 17.5506 35.8334 16.1251 35.8334C14.6995 35.8334 13.3324 35.2671 12.3244 34.2591C11.3164 33.251 10.7501 31.8839 10.7501 30.4584H7.16675V24.1875H5.37508ZM34.0417 33.1459C34.7545 33.1459 35.4381 32.8627 35.9421 32.3587C36.4461 31.8547 36.7292 31.1711 36.7292 30.4584C36.7292 29.7456 36.4461 29.062 35.9421 28.558C35.4381 28.054 34.7545 27.7709 34.0417 27.7709C33.329 27.7709 32.6454 28.054 32.1414 28.558C31.6374 29.062 31.3542 29.7456 31.3542 30.4584C31.3542 31.1711 31.6374 31.8547 32.1414 32.3587C32.6454 32.8627 33.329 33.1459 34.0417 33.1459ZM36.7292 17.0209H32.2501V21.5H40.2409L36.7292 17.0209ZM16.1251 33.1459C16.8379 33.1459 17.5214 32.8627 18.0254 32.3587C18.5294 31.8547 18.8126 31.1711 18.8126 30.4584C18.8126 29.7456 18.5294 29.062 18.0254 28.558C17.5214 28.054 16.8379 27.7709 16.1251 27.7709C15.4123 27.7709 14.7287 28.054 14.2247 28.558C13.7207 29.062 13.4376 29.7456 13.4376 30.4584C13.4376 31.1711 13.7207 31.8547 14.2247 32.3587C14.7287 32.8627 15.4123 33.1459 16.1251 33.1459Z" fill="black"/>
</svg>
