<svg width="43" height="43" viewBox="0 0 43 43" fill="none" xmlns="http://www.w3.org/2000/svg">
<path d="M8.95841 35.8333C9.94792 35.8333 10.7501 35.0312 10.7501 34.0417C10.7501 33.0522 9.94792 32.25 8.95841 32.25C7.9689 32.25 7.16675 33.0522 7.16675 34.0417C7.16675 35.0312 7.9689 35.8333 8.95841 35.8333Z" fill="black"/>
<path d="M7.16675 7.16669H10.7501V23.2917H7.16675V7.16669Z" fill="black"/>
<path d="M12.5416 3.58331H5.37492C4.89974 3.58331 4.44402 3.77208 4.10802 4.10808C3.77202 4.44408 3.58325 4.8998 3.58325 5.37498V37.625C3.58325 38.1002 3.77202 38.5559 4.10802 38.8919C4.44402 39.2279 4.89974 39.4166 5.37492 39.4166H12.5416C13.0168 39.4166 13.4725 39.2279 13.8085 38.8919C14.1445 38.5559 14.3333 38.1002 14.3333 37.625V5.37498C14.3333 4.8998 14.1445 4.44408 13.8085 4.10808C13.4725 3.77208 13.0168 3.58331 12.5416 3.58331ZM12.5416 37.625H5.37492V5.37498H12.5416V37.625Z" fill="black"/>
<path d="M21.4999 35.8333C22.4894 35.8333 23.2916 35.0312 23.2916 34.0417C23.2916 33.0522 22.4894 32.25 21.4999 32.25C20.5104 32.25 19.7083 33.0522 19.7083 34.0417C19.7083 35.0312 20.5104 35.8333 21.4999 35.8333Z" fill="black"/>
<path d="M19.7083 7.16669H23.2916V23.2917H19.7083V7.16669Z" fill="black"/>
<path d="M25.0833 3.58331H17.9167C17.4415 3.58331 16.9858 3.77208 16.6498 4.10808C16.3138 4.44408 16.125 4.8998 16.125 5.37498V37.625C16.125 38.1002 16.3138 38.5559 16.6498 38.8919C16.9858 39.2279 17.4415 39.4166 17.9167 39.4166H25.0833C25.5585 39.4166 26.0142 39.2279 26.3502 38.8919C26.6862 38.5559 26.875 38.1002 26.875 37.625V5.37498C26.875 4.8998 26.6862 4.44408 26.3502 4.10808C26.0142 3.77208 25.5585 3.58331 25.0833 3.58331ZM25.0833 37.625H17.9167V5.37498H25.0833V37.625Z" fill="black"/>
<path d="M34.0417 35.8333C35.0312 35.8333 35.8333 35.0312 35.8333 34.0417C35.8333 33.0522 35.0312 32.25 34.0417 32.25C33.0522 32.25 32.25 33.0522 32.25 34.0417C32.25 35.0312 33.0522 35.8333 34.0417 35.8333Z" fill="black"/>
<path d="M32.25 7.16669H35.8333V23.2917H32.25V7.16669Z" fill="black"/>
<path d="M37.6251 3.58331H30.4584C29.9832 3.58331 29.5275 3.77208 29.1915 4.10808C28.8555 4.44408 28.6667 4.8998 28.6667 5.37498V37.625C28.6667 38.1002 28.8555 38.5559 29.1915 38.8919C29.5275 39.2279 29.9832 39.4166 30.4584 39.4166H37.6251C38.1003 39.4166 38.556 39.2279 38.892 38.8919C39.228 38.5559 39.4167 38.1002 39.4167 37.625V5.37498C39.4167 4.8998 39.228 4.44408 38.892 4.10808C38.556 3.77208 38.1003 3.58331 37.6251 3.58331ZM37.6251 37.625H30.4584V5.37498H37.6251V37.625Z" fill="black"/>
</svg>
