<svg width="40" height="40" viewBox="0 0 40 40" fill="none" xmlns="http://www.w3.org/2000/svg">
<path opacity="0.25" d="M8.74992 33.5417H2.91659C2.52981 33.5417 2.15888 33.3881 1.88539 33.1146C1.6119 32.8411 1.45825 32.4701 1.45825 32.0834V20.4167C1.45825 20.0299 1.6119 19.659 1.88539 19.3855C2.15888 19.112 2.52981 18.9584 2.91659 18.9584H8.74992C9.13669 18.9584 9.50763 19.112 9.78112 19.3855C10.0546 19.659 10.2083 20.0299 10.2083 20.4167V32.0834C10.2083 32.4701 10.0546 32.8411 9.78112 33.1146C9.50763 33.3881 9.13669 33.5417 8.74992 33.5417Z" fill="black"/>
<path d="M6.66667 21.6667H16.6667C17.5833 21.6667 18.3333 20.9167 18.3333 20V6.66667C18.3333 5.75 17.5833 5 16.6667 5H6.66667C5.75 5 5 5.75 5 6.66667V20C5 20.9167 5.75 21.6667 6.66667 21.6667ZM6.66667 35H16.6667C17.5833 35 18.3333 34.25 18.3333 33.3333V26.6667C18.3333 25.75 17.5833 25 16.6667 25H6.66667C5.75 25 5 25.75 5 26.6667V33.3333C5 34.25 5.75 35 6.66667 35ZM23.3333 35H33.3333C34.25 35 35 34.25 35 33.3333V20C35 19.0833 34.25 18.3333 33.3333 18.3333H23.3333C22.4167 18.3333 21.6667 19.0833 21.6667 20V33.3333C21.6667 34.25 22.4167 35 23.3333 35ZM21.6667 6.66667V13.3333C21.6667 14.25 22.4167 15 23.3333 15H33.3333C34.25 15 35 14.25 35 13.3333V6.66667C35 5.75 34.25 5 33.3333 5H23.3333C22.4167 5 21.6667 5.75 21.6667 6.66667Z" fill="black"/>
<path d="M20.4167 33.5417H14.5833C14.1966 33.5417 13.8256 33.3881 13.5521 33.1146C13.2786 32.8411 13.125 32.4701 13.125 32.0834V2.91671C13.125 2.52993 13.2786 2.159 13.5521 1.88551C13.8256 1.61202 14.1966 1.45837 14.5833 1.45837H20.4167C20.8034 1.45837 21.1744 1.61202 21.4479 1.88551C21.7214 2.159 21.875 2.52993 21.875 2.91671V32.0834C21.875 32.4701 21.7214 32.8411 21.4479 33.1146C21.1744 33.3881 20.8034 33.5417 20.4167 33.5417Z" fill="black"/>
<path opacity="0.5" d="M32.0834 33.5417H26.2501C25.8633 33.5417 25.4924 33.388 25.2189 33.1145C24.9454 32.841 24.7917 32.4701 24.7917 32.0833V14.5833C24.7917 14.1966 24.9454 13.8256 25.2189 13.5521C25.4924 13.2786 25.8633 13.125 26.2501 13.125H32.0834C32.4702 13.125 32.8411 13.2786 33.1146 13.5521C33.3881 13.8256 33.5417 14.1966 33.5417 14.5833V32.0833C33.5417 32.4701 33.3881 32.841 33.1146 33.1145C32.8411 33.388 32.4702 33.5417 32.0834 33.5417Z" fill="black"/>
</svg>
